<svg width="22" height="22" viewBox="0 0 22 22" fill="none" xmlns="http://www.w3.org/2000/svg">
<path d="M2.75 18.3333H18.8066M6.31812 15.3951L4.98007 18.3333M6.31812 15.3951L4.08803 13.2964M6.31812 15.3951H10.7783M17.9146 18.3333L16.7726 16.4526C16.3755 15.7987 15.6366 15.3951 14.8363 15.3951H10.7783M3.19599 12.457L4.08803 13.2964M4.08803 13.2964H7.92238C8.59984 13.2964 9.24058 13.5863 9.66378 14.0841L10.7783 15.3951M9.48278 7.89246C9.56199 7.29074 9.80072 6.71359 10.1853 6.19398C10.5699 5.67436 11.0929 5.22245 11.7243 4.86406C12.2752 4.55139 12.8992 4.31523 13.5688 4.16537M9.48278 7.89246L7.26961 7.63444C7.02515 7.60594 6.84901 7.39543 6.90724 7.17018C7.02427 6.71754 7.23376 6.28393 7.52952 5.88434C7.91413 5.36473 8.43708 4.91282 9.06853 4.55442C9.69997 4.19603 10.4275 3.93816 11.2097 3.79554C11.5616 3.73137 11.9216 3.6911 12.2851 3.67485C12.7295 3.655 13.1795 3.67105 13.627 3.72323C14.0746 3.77542 14.5151 3.86317 14.9409 3.98449C15.2893 4.08373 15.6279 4.20544 15.9526 4.3485C16.6741 4.66643 17.3128 5.08358 17.8322 5.57616C18.3516 6.06873 18.7416 6.62707 18.9798 7.2193C19.163 7.67473 19.2538 8.14334 19.2499 8.60917C19.2479 8.84098 19.0225 9.00468 18.7781 8.97618L16.5649 8.71815M9.48278 7.89246L13.0238 8.30531M16.5649 8.71815C16.6441 8.11642 16.5623 7.5019 16.324 6.90967C16.0858 6.31744 15.6958 5.7591 15.1764 5.26653C14.7233 4.8368 14.1793 4.46448 13.5688 4.16537M16.5649 8.71815L13.0238 8.30531M13.5688 4.16537L13.0238 8.30531M13.0238 8.30531L11.8533 18.3333" stroke="#030303" stroke-linecap="round"/>
</svg>
