<svg width="169" height="126" viewBox="0 0 169 126" fill="none" xmlns="http://www.w3.org/2000/svg">
<path d="M169 123.5C169 101.089 160.097 79.5963 144.251 63.7495C128.404 47.9027 106.911 39 84.5 39C62.0892 39 40.5963 47.9026 24.7495 63.7495C8.90266 79.5963 3.38394e-06 101.089 0 123.5L169 123.5Z" fill="#F1F6FD"/>
<path d="M155 123.5C155 104.802 147.572 86.8703 134.351 73.649C121.13 60.4277 103.198 53 84.5 53C65.8022 53 47.8703 60.4277 34.649 73.649C21.4277 86.8703 14 104.802 14 123.5L155 123.5Z" fill="#E0EDFF"/>
<path d="M69.6328 98.4538C70.3405 99.3009 74.0723 100.11 75.577 98.7323C77.0821 97.3554 75.5555 95.0526 75.5555 95.0526L69.6328 98.4538Z" fill="#A3ACC0"/>
<path d="M73.9411 112.728C63.2859 104.1 62.0547 97.0315 63.536 95.8819C65.0179 94.7334 69.992 94.35 75.0187 97.6062C75.0187 97.6062 83.394 113.15 73.9411 112.728Z" fill="white"/>
<path d="M73.7405 113.842C73.651 113.842 73.5615 113.811 73.4899 113.748C65.7107 106.953 62.9903 100.89 63.0237 97.7636C63.0332 96.9286 63.2461 96.3127 63.6405 95.9823C65.2864 94.6064 70.271 94.4343 74.9803 97.7243C75.1493 97.8422 75.188 98.0715 75.0666 98.236C74.9468 98.4009 74.7109 98.4398 74.543 98.3213C69.9916 95.1421 65.414 95.4659 64.1297 96.5399C63.9142 96.7202 63.7818 97.1804 63.776 97.7713C63.7431 100.745 66.3991 106.57 73.9916 113.202C74.1464 113.337 74.159 113.569 74.0203 113.72C73.9466 113.801 73.844 113.842 73.7405 113.842Z" fill="#A3ACC0"/>
<path d="M60.5517 65.2105C58.9583 67.6968 59.6666 73.9144 62.5432 78.0245C64.6515 81.0362 69.5682 80.945 72.0932 80.6287C72.0932 80.6287 65.4658 89.4634 66.9183 95.6084C68.3703 101.753 75.9939 96.2009 77.6637 92.7951L79.5415 77.1487L60.5517 65.2105Z" fill="white"/>
<path d="M67.4285 80.6842C65.6528 80.3985 63.8348 79.5373 63.0234 77.3684C63.1016 77.5136 63.1812 77.6577 63.2627 77.7987C64.2209 79.4578 65.7904 80.2983 67.4285 80.6842Z" fill="white"/>
<path d="M72.94 113.371C72.9087 112.218 59.4004 108.405 53.1172 117.843C53.9869 121.084 67.1915 120.417 67.1915 120.417L72.94 113.371Z" fill="white"/>
<path d="M64.8585 121.579C60.7149 121.579 53.8188 121.18 53.1294 118.559C53.1027 118.457 53.1202 118.349 53.1777 118.261C58.041 110.812 67.0567 111.031 71.6159 112.336C73.2115 112.793 74.0272 113.289 74.0411 113.81C74.0463 114.015 73.886 114.186 73.682 114.191H73.6722C73.4914 114.191 73.3399 114.06 73.3091 113.886C73.0229 113.506 70.4153 112.446 66.6816 112.388C63.4591 112.337 57.5479 113.071 53.8949 118.518C54.8031 120.628 62.8324 121.022 67.7995 120.767C68.005 120.77 68.1766 120.914 68.1874 121.119C68.1976 121.324 68.0409 121.498 67.8375 121.509C67.4671 121.528 66.338 121.579 64.8585 121.579Z" fill="#A3ACC0"/>
<path d="M71.0782 98.3684C70.9315 98.3684 70.788 98.3605 70.6465 98.3447C69.5926 98.2241 68.2185 97.59 67.6601 95.2581C66.1295 88.8747 72.7147 80.0978 72.9965 79.7276C73.1227 79.5612 73.359 79.5301 73.524 79.6565C73.689 79.7829 73.7204 80.0204 73.5947 80.1863C73.5282 80.2743 66.9456 89.048 68.3914 95.0811C68.7586 96.6115 69.5465 97.4568 70.7319 97.5927C73.5025 97.9029 77.6702 94.4587 78.8305 92.1246C78.9238 91.9382 79.149 91.8624 79.3355 91.955C79.5214 92.0488 79.5969 92.2758 79.5036 92.4627C78.281 94.9221 74.1463 98.3684 71.0782 98.3684Z" fill="#A3ACC0"/>
<path d="M79.3915 77.8839C79.3915 77.8839 69.7989 101.699 79.4338 113.459C89.2409 125.428 117.004 122.15 122.524 116.436C136.762 97.2765 120.66 79.2741 103.677 86.2808C103.677 86.2808 101.904 79.8417 99.9998 76.9606C92.0968 74.9659 79.3915 77.8839 79.3915 77.8839Z" fill="#F1F3F9"/>
<path d="M122.525 116.438C121.318 117.687 119.041 118.825 116.123 119.704C114.692 120.14 113.118 120.509 111.437 120.804C107.316 121.529 102.569 121.795 97.916 121.388C95.1635 121.145 92.4476 120.665 89.9151 119.903L89.9008 119.896C85.6773 118.617 81.9585 116.549 79.4255 113.46C76.051 109.338 75.0262 103.73 75.1505 98.1881V98.1587C75.1653 97.2354 75.2091 96.3043 75.2896 95.3881C76.0434 86.1745 79.3817 77.8842 79.3817 77.8842C79.3817 77.8842 92.089 74.9655 99.9967 76.9609C101.897 79.8425 103.669 86.2778 103.669 86.2778C104.474 85.9457 105.279 85.6722 106.078 85.4573C106.333 85.3761 106.588 85.3097 106.848 85.2583C107.724 85.0439 108.595 84.8964 109.46 84.8223C110.296 84.7334 111.116 84.719 111.926 84.7555C125.169 85.2876 134.398 100.464 122.525 116.438Z" fill="white"/>
<path d="M111.484 119.368C112.23 118.908 112.941 118.416 113.6 117.877C115.173 116.631 116.455 115.161 117.399 113.537C118.372 111.929 119.008 110.161 119.375 108.335C119.73 106.509 119.754 104.625 119.585 102.749C119.217 99.0026 117.976 95.2707 115.937 91.9235C114.905 90.2496 113.658 88.6771 112.143 87.3294C112.137 87.3249 112.131 87.3203 112.125 87.3158C113.32 87.5416 114.451 87.8578 115.511 88.2621C116.356 89.1182 117.12 90.0383 117.801 90.9887C120.272 94.4812 121.799 98.4374 122.323 102.531C122.592 104.574 122.551 106.661 122.189 108.726C121.822 110.791 121.071 112.834 119.87 114.689C119.054 115.943 118.023 117.092 116.828 118.078C115.202 118.574 113.402 119.008 111.484 119.368Z" fill="#A2ABBF"/>
<path d="M83.9612 108.316C82.3582 107.98 80.7894 107.383 79.4296 106.458C77.6456 105.281 76.33 103.54 75.5914 101.681C75.425 101.256 75.2852 100.827 75.1687 100.396C75.103 98.8178 75.1559 97.2263 75.2928 95.6605C75.3752 95.7196 75.4296 95.8102 75.4378 95.9139C75.6575 97.7453 75.9663 99.6121 76.9074 101.138C78.8258 104.247 81.5458 105.724 84.5533 106.206C84.3305 106.917 84.1321 107.624 83.9612 108.316ZM99.5358 105.406C99.6172 104.324 99.5816 103.138 99.429 101.951C99.7189 101.644 99.9936 101.32 100.243 100.977C101.281 99.6053 102.049 98.0104 102.588 96.3113C102.822 95.6072 103.026 94.8812 103.193 94.1426C103.193 94.1426 103.524 93.8989 103.59 92.0031C103.641 91.6614 103.687 91.3188 103.733 90.9761V90.9485C103.753 90.7697 103.911 90.6316 104.104 90.6316C104.119 90.6316 104.14 90.6326 104.155 90.635C104.318 90.649 104.44 90.76 104.475 90.9064C104.959 92.8288 104.974 94.793 104.679 96.7639C104.369 98.7208 103.667 100.685 102.466 102.426C101.861 103.283 101.148 104.09 100.329 104.787C100.075 105.003 99.8105 105.209 99.5358 105.406Z" fill="#A2ABBF"/>
<path d="M98.6709 120.474C98.2453 120.45 97.8077 120.42 97.3601 120.383C97.4293 119.831 97.3656 119.235 97.2107 118.624C97.1981 118.522 97.1826 118.419 97.1641 118.318C101.042 117.047 104.27 114.296 106.346 110.832C106.612 110.38 106.837 109.907 107.088 109.448C107.288 108.961 107.504 108.481 107.699 107.993C107.865 107.499 108.065 107.004 108.211 106.495C108.336 105.986 108.506 105.485 108.602 104.962C109.033 102.883 109.198 100.733 109.083 98.5822C108.912 94.7759 107.85 91.0194 106.351 87.4001C106.727 87.3632 107.098 87.3353 107.459 87.3158C109.424 90.6733 110.832 94.4253 111.294 98.3887C111.574 100.718 111.554 103.105 111.128 105.449C110.727 107.793 109.945 110.108 108.722 112.193C106.566 116.042 102.892 119.121 98.6709 120.474Z" fill="#A2ABBF"/>
<path d="M115.889 88.4211C114.707 87.9988 113.447 87.6687 112.115 87.4328C110.985 86.4773 109.654 85.687 108.18 85.1595C108.745 85.1221 109.297 85.1053 109.849 85.1053C110.199 85.1053 110.544 85.1121 110.888 85.1242C110.992 85.1279 111.096 85.1316 111.2 85.1363C111.966 85.4949 112.68 85.9166 113.336 86.3725C114.265 86.9974 115.109 87.6866 115.889 88.4211Z" fill="#A9B1C4"/>
<path d="M106.658 87.3158C106.438 87.0035 106.211 86.6925 105.977 86.383C106.052 86.3706 106.128 86.3587 106.204 86.3467C106.5 86.2932 106.789 86.2477 107.085 86.2105C107.463 86.5511 107.828 86.8969 108.179 87.2483C107.684 87.2639 107.174 87.2862 106.658 87.3158Z" fill="#A9B1C4"/>
<path d="M103.421 93.9474C103.248 91.741 102.757 86.909 101.57 84.2366C101.915 84.2094 102.243 84.1631 102.541 84.0967C102.675 84.0663 102.813 84.0339 102.951 84C103.145 84.661 103.296 85.3457 103.412 86.0345C103.404 86.0386 103.399 86.0428 103.391 86.0469C103.339 85.8396 103.266 85.551 103.175 85.2032L102.67 85.3596L103.171 86.3427C103.162 86.4121 103.166 86.4852 103.192 86.5546C103.231 86.6549 103.3 86.7259 103.382 86.7568L103.572 87.1369C103.77 88.7553 103.796 90.3464 103.758 91.6762C103.667 92.4406 103.555 93.2004 103.421 93.9474Z" fill="#D5D9E4"/>
<path d="M78.4453 78.6913C80.6842 80.8931 88.3567 78.3054 88.3567 78.3054V76.9397L79.6081 75.1579L78.4453 78.6913Z" fill="#A3ACC0"/>
<path d="M41.646 20.7081C44.1634 17.052 47.4339 13.7399 51.3684 11.2492C53.3085 10.0215 55.4646 8.90892 57.6749 8.22035C59.9109 7.52374 62.1887 6.93979 64.5175 6.7718C69.4354 6.4157 74.8976 6.48411 78.5897 10.1105C80.2242 11.7894 81.4675 13.576 82.5376 15.4601C83.5901 17.3442 84.4437 19.3153 85.0107 21.3569C85.1746 21.9433 84.819 22.5479 84.2174 22.7074C83.7551 22.8301 83.2814 22.653 83.0133 22.2974L82.9999 22.2788C81.8 20.6789 80.551 19.1654 79.2258 17.7561C77.9707 16.4223 76.5913 14.9385 74.9455 13.9803C73.0816 12.8954 71.0554 12.9513 68.9545 13.0614C64.2458 13.3079 59.4686 14.7786 55.6656 17.5404C52.726 19.5316 50.2024 22.1289 47.904 25.0099L47.8432 25.0854C46.5453 26.713 44.1402 27.0057 42.4717 25.7382C40.8779 24.5281 40.5408 22.3211 41.646 20.7081Z" fill="#D6DCE8"/>
<path d="M64.125 14.3684C65.8291 11.3141 74.1538 7.73683 74.1538 7.73683L75.1377 7.99249L68.2004 14.109L64.125 14.3684Z" fill="#A3ACC0"/>
<path d="M75.1406 13.7368L78.9679 9.94735C78.9679 9.94735 83.6343 17.0951 85.052 23.2105C82.7063 22.8751 82.7062 22.8751 82.7062 22.8751C82.7062 22.8751 77.9132 15.1438 75.1406 13.7368Z" fill="#A3ACC0"/>
<path d="M42.3005 21.5416C41.3115 23.0359 41.6339 25.0692 43.0335 26.17C43.7499 26.7341 44.6401 26.9815 45.5424 26.8688C46.4438 26.7551 47.2473 26.294 47.8049 25.5697L47.8657 25.4913C50.4283 22.1645 52.9514 19.6512 55.5778 17.8086C59.1853 15.095 63.8973 13.449 68.8359 13.1816C71.1532 13.0566 73.0755 13.0484 74.9339 14.1688C76.5643 15.1519 77.9366 16.6626 79.1477 17.9961L79.2252 18.0816C80.4824 19.4658 81.7052 20.9832 82.9629 22.7198C83.1565 22.9867 83.4779 23.0994 83.7709 23.0185C83.9636 22.9657 84.1238 22.8402 84.2226 22.666C84.322 22.4913 84.3479 22.2885 84.2952 22.0943C83.773 20.1471 82.9649 18.1538 81.8943 16.1682C80.7273 14.0397 79.5106 12.3323 78.0673 10.797C74.6064 7.27604 69.5111 7.13566 64.5178 7.50963C62.0667 7.69303 59.6795 8.38615 57.8728 8.96912C55.9479 9.59001 53.8907 10.6141 51.7575 12.0121C48.1384 14.3845 44.8682 17.68 42.3005 21.5416ZM45.1135 27.6316C44.2 27.6316 43.3179 27.3273 42.5859 26.751C40.8861 25.4144 40.4948 22.9463 41.6942 21.1328L41.6947 21.1318C44.3176 17.1877 47.6604 13.821 51.3611 11.3943C53.5486 9.9604 55.6651 8.90868 57.6513 8.26781C59.4955 7.67254 61.9369 6.96457 64.4645 6.77554C69.6293 6.38876 74.9152 6.54603 78.5895 10.2836C80.0824 11.8712 81.3336 13.6268 82.533 15.8137C83.632 17.8516 84.4614 19.8992 84.9982 21.9012C85.1017 22.2849 85.051 22.6865 84.8548 23.0318C84.6591 23.3771 84.3418 23.6245 83.9621 23.7285C83.3806 23.8894 82.7475 23.666 82.388 23.1737C81.1333 21.4401 79.9273 19.9433 78.6883 18.5796L78.6108 18.4935C77.4336 17.1974 76.0994 15.7287 74.5608 14.8015C72.8793 13.7877 71.0685 13.7984 68.8744 13.9168C64.0778 14.177 59.5066 15.7712 56.0032 18.4064C53.4279 20.2132 50.9571 22.6763 48.4401 25.9446L48.3793 26.023C47.703 26.9011 46.7272 27.4615 45.6327 27.5993C45.4593 27.6208 45.2859 27.6316 45.1135 27.6316Z" fill="#A3ACC0"/>
<path d="M63.226 21.5505C64.1445 18.8961 65.5184 16.4684 67.1189 14.2763C70.2812 9.9863 74.5193 6.6376 79.1605 4.09603C82.5659 2.23211 86.5008 0.763962 90.3512 0.218412C92.758 -0.122751 95.2838 -0.187757 97.5017 0.950668C98.326 1.40261 99.0867 1.97469 99.6766 2.63361C100.903 3.94522 101.545 5.42376 101.964 6.81702C102.781 9.6233 102.761 12.2569 102.533 14.8094C102.398 16.0851 102.202 17.339 101.912 18.5778C101.596 19.8358 101.307 20.9956 100.618 22.3368C100.277 23.0015 99.3661 23.1253 98.8435 22.5948C98.2018 21.9432 98.6986 20.6924 98.74 19.8957C98.9263 16.1637 98.7813 12.0458 97.098 8.62945C95.9311 6.2595 93.9751 5.90638 91.5746 6.68492C84.5266 8.97113 77.8088 12.946 73.3167 18.997C72.0639 20.6445 71.0274 22.392 70.1948 24.2039L70.127 24.3511C69.2643 26.2285 67.0506 27.0476 65.182 26.1801C63.4314 25.3673 62.6118 23.3447 63.226 21.5505Z" fill="#D6DCE8"/>
<path d="M98.7707 17.064C100.921 17.3605 102.671 13.2632 102.671 13.2632C102.671 13.2632 102.395 18.7114 100.609 22.0647C98.8228 22.3004 98.2656 21.4313 98.2656 21.4313L98.7707 17.064Z" fill="#A3ACC0"/>
<path d="M63.9625 21.4408C63.393 23.0441 64.1561 24.787 65.7383 25.495C66.5578 25.8622 67.4765 25.8976 68.3258 25.5957C69.1735 25.2932 69.8494 24.6888 70.2284 23.8943L70.2968 23.7511C71.1643 21.9304 72.2386 20.2036 73.4882 18.6191C77.6558 13.2068 84.0887 9.02203 92.0887 6.52048C94.9278 5.63285 96.9546 6.33032 98.1114 8.59618C99.943 12.1781 99.9743 16.4286 99.8021 19.7323C99.7916 19.9609 99.7446 20.2087 99.6977 20.4712C99.588 21.0716 99.4628 21.7518 99.8021 22.0826C99.9743 22.2495 100.214 22.3223 100.455 22.2879C100.695 22.253 100.888 22.119 100.992 21.9212C101.671 20.6442 101.963 19.5264 102.266 18.3434C102.542 17.2009 102.746 16.0164 102.887 14.7287C103.085 12.5422 103.174 9.91979 102.323 7.09606C102 6.06226 101.415 4.52674 100.105 3.17481C99.5515 2.58356 98.8259 2.0434 98.0033 1.60843C95.7227 0.480053 93.0731 0.656567 91.0217 0.936764C87.4613 1.42332 83.4978 2.74793 79.8606 4.66734C74.8162 7.33124 70.7702 10.6274 67.8356 14.4652C66.1094 16.7447 64.8055 19.0925 63.9625 21.4408ZM67.155 26.5263C66.5641 26.5263 65.9758 26.4024 65.423 26.1551C63.4906 25.2902 62.5573 23.1619 63.2526 21.2046L63.2531 21.2036C64.1212 18.7855 65.46 16.3734 67.2322 14.0337C70.2326 10.1089 74.3605 6.74353 79.5015 4.02956C82.1287 2.64273 86.2419 0.855843 90.9168 0.217052C93.0778 -0.0783195 95.8762 -0.25989 98.353 0.965597C99.2592 1.44406 100.053 2.03581 100.658 2.68168C102.073 4.13982 102.694 5.78155 103.044 6.88818C103.931 9.83178 103.837 12.5392 103.633 14.799C103.487 16.1231 103.278 17.3364 102.997 18.5144C102.678 19.7459 102.375 20.9026 101.66 22.254C101.441 22.6612 101.044 22.9353 100.569 23.0061C100.089 23.0775 99.609 22.9232 99.2697 22.5944C98.6579 21.9961 98.826 21.0802 98.9617 20.3443C99.0034 20.105 99.0452 19.8789 99.0556 19.6948C99.2227 16.4801 99.1913 12.3495 97.4396 8.91836C96.4457 6.97265 94.8176 6.43047 92.3189 7.21188C86.8443 8.92392 79.2368 12.3687 74.0869 19.0571C72.8676 20.6027 71.8231 22.2834 70.9774 24.0561L70.9096 24.1992C70.4466 25.1703 69.6213 25.9083 68.5847 26.2775C68.119 26.4439 67.6368 26.5263 67.155 26.5263Z" fill="#A3ACC0"/>
<path d="M63.3246 52.1007C65.0999 30.1774 75.9494 19.907 95.2805 21.0919C114.613 22.2767 128.423 41.6325 119.94 63.5554C111.457 85.4788 72.2536 82.435 62.8418 69.191C55.5435 58.9206 63.3246 52.1007 63.3246 52.1007Z" fill="white"/>
<path d="M90.5458 79.5789C86.3215 79.5789 82.0672 79.0373 78.0705 78.0078C77.8755 77.9569 77.7574 77.7581 77.8078 77.5622C77.8587 77.3664 78.0577 77.2489 78.2537 77.3003C86.1663 79.3379 94.9183 79.3236 102.266 77.2586C108.196 75.5928 115.96 71.8076 119.284 63.2322C123.189 53.1593 122.445 42.732 117.243 34.624C112.381 27.0464 104.353 22.3798 95.2161 21.8208C76.2231 20.6555 65.7224 30.8433 63.9982 52.0887C63.9906 52.1828 63.9462 52.2713 63.875 52.3338C63.5716 52.6004 56.5194 58.9775 63.4545 68.7142C64.9206 70.7741 67.1509 72.6158 70.0811 74.19C70.2593 74.2857 70.3265 74.5069 70.2303 74.6849C70.1356 74.8625 69.9131 74.9311 69.7349 74.834C66.7044 73.2064 64.3907 71.2899 62.8579 69.1384C56.0215 59.5385 62.3416 52.8028 63.2809 51.8898C65.0774 30.265 75.8346 19.9053 95.2608 21.0914C104.633 21.6646 112.87 26.4534 117.859 34.2293C123.189 42.5357 123.957 53.2036 119.966 63.4962C115.619 74.7033 103.218 79.5789 90.5458 79.5789Z" fill="#A3ACC0"/>
<path d="M101.61 121.579C95.6807 121.579 85.2156 120.481 79.4816 113.401C69.9709 101.655 78.9955 78.5745 79.3839 77.5976C79.4596 77.4087 79.6701 77.3196 79.8531 77.3954C80.038 77.4717 80.1267 77.6867 80.0515 77.8746C79.9573 78.1096 70.801 101.525 80.037 112.932C85.583 119.781 95.808 120.843 101.605 120.843C101.705 120.843 101.801 120.843 101.896 120.842C109.955 120.794 118.176 118.748 121.915 115.866C129.654 105.9 127.814 96.2869 123.884 91.0782C119.193 84.865 111.294 83.0428 103.765 86.4354C103.58 86.5168 103.369 86.4333 103.289 86.2475C103.209 86.0616 103.289 85.8445 103.475 85.7626C111.314 82.2272 119.554 84.1385 124.451 90.6292C128.551 96.0544 130.486 106.049 122.451 116.36L122.386 116.423C118.551 119.408 110.131 121.528 101.901 121.578C101.806 121.579 101.705 121.579 101.61 121.579Z" fill="#A3ACC0"/>
<path d="M70.4293 80.6842C67.7138 80.6842 64.442 80.1672 62.7578 77.98C59.811 74.151 58.7924 68.0233 60.6618 65.3702C60.7767 65.2072 61.0112 65.1615 61.1885 65.268C61.3643 65.3746 61.4136 65.5931 61.2987 65.7561C59.7797 67.9109 60.369 73.661 63.3772 77.57C66.2134 81.2542 74.5902 79.5997 74.6744 79.582C74.8793 79.5417 75.0826 79.6615 75.1276 79.851C75.1726 80.0415 75.0429 80.2301 74.838 80.2718C74.6696 80.3057 72.7525 80.6842 70.4293 80.6842Z" fill="#A3ACC0"/>
<path d="M71.5258 53.0943C71.3161 55.5259 70.9183 57.6218 70.3571 58.9202C69.9702 59.8146 69.7029 59.9939 69.3585 59.0805C69.0292 57.6032 68.383 56.3678 67.553 54.8321C66.8241 50.0763 69.5087 44.0811 70.8522 44.2126C72.1957 44.3441 71.8844 48.9261 71.5258 53.0943Z" fill="#A3ACC0"/>
<path d="M91.6563 54.4325C91.6537 60.1349 93.0237 62.6247 93.6448 63C93.9879 62.6247 96.894 59.7894 101.568 57.7885C101.506 52.8099 97.2741 45.2865 94.981 45.3159C92.6873 45.3453 91.6588 49.454 91.6563 54.4325Z" fill="#A3ACC0"/>
<path d="M92.4196 53.8858C92.4169 59.0667 93.5377 61.409 94.0827 62.0936C95.1339 61.0804 97.9922 58.7554 101.898 57.0619C101.697 51.8899 97.3802 44.9661 95.4898 44.9661H95.4802C93.6238 44.9897 92.4222 48.4908 92.4196 53.8858ZM94.0938 63C94.0264 63 93.9578 62.9821 93.8968 62.9458C92.9948 62.408 91.6536 59.5509 91.6563 53.8852C91.6589 47.8578 93.0852 44.241 95.4707 44.2105H95.4871C98.1818 44.2105 102.605 52.2622 102.669 57.3027C102.674 57.4557 102.578 57.5951 102.44 57.655C97.3734 59.7923 94.403 62.8475 94.3754 62.8775C94.301 62.9579 94.1979 63 94.0938 63Z" fill="#A3ACC0"/>
<path d="M92.642 57.3282C90.5431 50.5003 91.9938 43.6355 95.1267 42.1981C98.2591 40.7607 102.829 47.3815 102.665 54.4534C102.5 61.5609 92.642 57.3282 92.642 57.3282Z" fill="#A3ACC0"/>
<path d="M71.8225 49.8426C71.6958 54.1153 70.6123 57.5315 69.4025 57.473C68.1931 57.4144 67.3151 53.9033 67.4418 49.6311C67.569 45.3584 68.6524 41.9422 69.8618 42.0008C71.0716 42.0593 71.9496 45.5704 71.8225 49.8426Z" fill="#9EA7BD"/>
<path d="M83.5905 60.7895C83.4446 60.7895 83.3078 60.689 83.2537 60.5265C82.3172 57.7159 81.2825 56.1785 80.2618 56.0803C79.2903 55.9923 78.1528 57.147 76.913 59.5343C76.8128 59.7273 76.5912 59.7934 76.4207 59.6794C76.2488 59.5665 76.1912 59.3182 76.2914 59.1246C77.7021 56.4077 79.0211 55.1429 80.323 55.2722C81.678 55.4025 82.8576 57.0279 83.9279 60.2415C83.9981 60.4509 83.9033 60.6845 83.7168 60.7635L83.5905 60.7895Z" fill="#A3ACC0"/>
<path d="M83.264 61.8947C83.1956 61.8947 83.1261 61.8765 83.0623 61.8383C82.8634 61.7205 82.7927 61.4546 82.9048 61.2445C83.695 59.7606 85.4634 58.6817 85.5381 58.6368C85.7346 58.5172 85.9875 58.5888 86.1007 58.7989C86.2139 59.0078 86.1455 59.2743 85.9478 59.3939C85.9312 59.4042 84.3019 60.4005 83.6243 61.6725C83.5491 61.8146 83.4082 61.8947 83.264 61.8947Z" fill="#A3ACC0"/>
<path d="M101.744 97.2632C101.674 97.2632 101.598 97.2408 101.537 97.1939C101.371 97.0747 101.335 96.8415 101.446 96.6733C104.269 92.5677 103.007 85.3998 100.507 80.1176C100.416 79.9317 100.492 79.7078 100.674 79.6172C100.856 79.5261 101.073 79.6032 101.159 79.789C103.754 85.2701 105.036 92.7499 102.042 97.1054C101.971 97.2085 101.86 97.2632 101.744 97.2632Z" fill="#A3ACC0"/>
<path d="M95.9656 91.3815C95.9796 90.9884 95.0572 85.5807 95.2773 83.6178C97.8085 84.1787 100.884 84.444 102.877 84.0745C106.48 83.4059 110.69 81.7155 111.261 79.9723C111.625 78.8736 111.484 77.5655 111.178 76.3786C111.059 75.9121 110.903 75.4503 110.752 75.0408C111.391 72.7844 111.147 70.3828 110.176 69.4011C108.826 68.0381 105.935 68.3276 104.372 69.8548C103.864 69.5351 103.095 69.4278 102.306 69.4011C99.3369 69.3021 99.1603 71.4784 98.6879 73.6824C98.2882 75.5586 97.1809 77.1032 95.6371 77.9268C95.4517 78.0259 94.6263 77.7513 93.5284 77.4768C91.116 76.8733 87.3887 76.2698 86.2539 79.631C85.5696 81.6586 88.3184 91.3815 91.5333 95.0526L95.9656 91.3815Z" fill="white"/>
<path d="M107.078 82.8947C107.869 82.5605 108.593 82.1861 109.189 81.787C108.238 82.5442 107.23 82.8517 107.078 82.8947ZM110.382 75.4831C110.354 75.3858 110.32 75.2906 110.287 75.1984C110.287 75.1984 110.325 75.2739 110.382 75.4831ZM110.287 75.1984C110.292 75.1852 110.297 75.1726 110.297 75.1594C110.301 75.1589 110.301 75.1584 110.301 75.1579C110.292 75.1842 110.287 75.1984 110.287 75.1984Z" fill="white"/>
<path d="M90.9549 95.0526C90.8477 95.0526 90.7411 95.0093 90.6654 94.9247C87.267 91.1267 84.4107 81.2664 85.1704 79.0651C86.5911 74.9473 91.5504 76.2475 93.9343 76.8716C94.3714 76.9866 94.864 77.1156 95.0314 77.1197C96.4894 76.3404 97.5438 74.888 97.9271 73.1267C97.9665 72.9477 98.0033 72.7682 98.0401 72.5903C98.4671 70.5438 98.8936 68.423 102.028 68.5302C103.382 68.5741 104.464 69.0744 105.163 69.9769C105.936 70.9724 106.17 72.4103 105.797 73.8214C105.157 76.229 103.153 78.7443 100.434 80.5505C100.258 80.6655 100.018 80.6222 99.9011 80.4541C99.7838 80.2854 99.8265 80.0549 100.002 79.9388C102.572 78.2322 104.459 75.8757 105.056 73.6368C105.371 72.4412 105.184 71.239 104.55 70.421C103.995 69.7046 103.116 69.307 102.001 69.2709C99.5226 69.1904 99.2028 70.7552 98.7923 72.7363C98.755 72.9163 98.7177 73.0983 98.675 73.2799C98.2427 75.2722 97.0305 76.9185 95.3502 77.7958C95.089 77.9325 94.7536 77.8541 93.7338 77.5875C91.4123 76.9784 87.0879 75.8453 85.897 79.2998C85.2861 81.0704 87.9409 90.7466 91.2444 94.4389C91.383 94.5941 91.3659 94.8278 91.206 94.9619C91.1329 95.0227 91.0439 95.0526 90.9549 95.0526Z" fill="#A3ACC0"/>
<path d="M100.43 84C96.6266 84 91.5855 82.9231 90.6234 81.7093C90.5048 81.5598 90.5438 81.3521 90.7091 81.2452C90.8755 81.1392 91.105 81.1734 91.2241 81.3225C92.1559 82.4988 98.9615 83.789 102.54 83.1855C106 82.6001 110.046 81.1045 110.549 79.7102C111.011 78.4283 110.559 76.7684 110.097 75.6022C110.03 75.4292 110.133 75.239 110.323 75.1774C110.518 75.1154 110.724 75.2061 110.795 75.3787C111.293 76.643 111.776 78.4561 111.252 79.9156C110.554 81.8477 105.738 83.3207 102.673 83.839C102.021 83.9496 101.256 84 100.43 84Z" fill="#A3ACC0"/>
<path d="M104.164 81.7895C104.001 81.7895 103.849 81.6844 103.795 81.5187C103.729 81.3124 103.838 81.0903 104.045 81.023C104.077 81.0121 107.368 79.9026 109.201 77.2065C111.066 74.4655 111.11 70.3683 109.842 69.0624C109.309 68.5186 108.51 68.2144 107.58 68.2067C106.405 68.2012 105.236 68.663 104.442 69.4525C104.284 69.6051 104.039 69.604 103.887 69.4492C103.735 69.2949 103.735 69.0454 103.892 68.8933C104.828 67.9605 106.204 67.4167 107.585 67.4211C108.722 67.4298 109.723 67.8172 110.397 68.512C112.05 70.2086 111.773 74.8206 109.848 77.6502C107.857 80.5722 104.431 81.7228 104.284 81.7703L104.164 81.7895Z" fill="#A3ACC0"/>
<path d="M95.7824 91.7368L95.7731 91.7363C95.6185 91.7288 95.4978 91.5517 95.5029 91.3398C95.5029 91.24 95.448 90.686 95.39 90.0989C95.1934 88.1067 94.864 84.7717 94.9882 83.2362C95.0049 83.0254 95.1408 82.8728 95.2969 82.8973C95.4507 82.9203 95.5613 83.1103 95.5441 83.3206C95.4277 84.7621 95.7637 88.167 95.9443 89.996C96.0362 90.9235 96.0654 91.2341 96.0619 91.3659C96.0569 91.5735 95.9326 91.7368 95.7824 91.7368Z" fill="#A3ACC0"/>
<path d="M90.8797 95.0526C90.7739 95.0526 90.6687 95.009 90.594 94.9237C87.2388 91.0938 84.4188 81.151 85.1688 78.9313C86.5714 74.7791 91.4676 76.0902 93.8213 76.7195C94.2528 76.8354 94.7391 76.9655 94.9044 76.9696C96.3438 76.1838 97.3848 74.7192 97.7632 72.9432C97.8022 72.7627 97.8385 72.5817 97.8748 72.4023C98.2964 70.3386 98.7175 68.2001 101.812 68.3083C102.696 68.3379 103.349 68.4586 103.838 68.6853C104.775 67.8792 106.065 67.4039 107.38 67.4215C108.47 67.4309 109.422 67.7851 110.049 68.4201C111.112 69.4914 111.407 71.9836 110.765 74.3812C110.922 74.8207 111.054 75.2508 111.159 75.6606C111.554 77.1813 111.58 78.4768 111.243 79.5107C110.528 81.682 105.591 83.3374 102.449 83.9199C100.644 84.2553 97.768 84.1077 95.0233 83.546C94.9728 85.1109 95.3696 88.0108 95.5922 89.6355C95.7165 90.5394 95.756 90.8421 95.7512 90.9706C95.7444 91.177 95.5681 91.3575 95.3607 91.3315C95.1523 91.3242 94.9896 91.1526 94.9954 90.9472C94.9949 90.8447 94.9212 90.3064 94.8428 89.7359C94.577 87.7945 94.1318 84.545 94.2997 83.0488C94.3118 82.9432 94.3681 82.8475 94.4555 82.7856C94.5433 82.7237 94.6539 82.7019 94.7581 82.7253C97.537 83.3405 100.502 83.521 102.312 83.1856C105.859 82.5277 110.007 80.8468 110.522 79.2798C110.817 78.3827 110.786 77.2265 110.428 75.8452C110.322 75.4302 110.175 74.9741 110.012 74.5258C109.986 74.4524 109.98 74.3724 110.001 74.2975C110.607 72.1402 110.396 69.8383 109.512 68.9433C109.022 68.4508 108.265 68.1762 107.375 68.1689C106.18 68.1548 104.954 68.6338 104.165 69.4067C104.038 69.5299 103.844 69.5492 103.696 69.4571C103.312 69.2168 102.686 69.0853 101.786 69.0551C99.3385 68.974 99.0227 70.5519 98.6175 72.5495C98.5806 72.731 98.5438 72.9146 98.5017 73.0976C98.0748 75.1067 96.878 76.7668 95.2191 77.6514C94.9612 77.7892 94.6302 77.7102 93.6233 77.4413C91.3313 76.8271 87.0619 75.6845 85.8862 79.168C85.283 80.9534 87.904 90.7105 91.1655 94.4338C91.3024 94.5903 91.2855 94.8259 91.1276 94.9611C91.0555 95.0225 90.9676 95.0526 90.8797 95.0526Z" fill="#A3ACC0"/>
<path d="M93.6472 109.144C93.2797 111.183 92.9952 112.287 92.9952 112.287C92.9952 112.287 100.026 120.187 95.5479 122.787C91.0682 125.387 69.9696 126.368 67.5163 121.054C66.6492 119.176 72.4289 112.533 78.6421 110.512C80.4745 109.915 82.3275 109.759 83.6994 109.835C85.0552 103.138 88.9493 94.4814 93.6593 93.9668C98.3069 93.4594 100.217 103.002 99.0157 107.767L93.6472 109.144Z" fill="white"/>
<path d="M86.2134 124.895C85.8312 124.895 85.442 124.879 85.0469 124.846C86.2671 124.837 87.3744 124.795 88.3762 124.725C87.6885 124.834 86.9644 124.895 86.2134 124.895ZM88.3762 124.725C88.8221 124.654 89.2526 124.562 89.6667 124.453C91.2752 124.279 92.7124 124.053 93.857 123.789C92.5392 124.229 90.7531 124.558 88.3762 124.725Z" fill="white"/>
<path d="M97.1229 119.368C96.094 115.645 92.7578 111.632 92.7578 111.632C92.7578 111.632 96.5114 115.484 97.1629 119.355C97.1495 119.359 97.1362 119.364 97.1229 119.368Z" fill="#D5D9E4"/>
<path d="M84.2932 110.526L84.2256 110.519C84.0418 110.477 83.9226 110.274 83.96 110.066C85.0911 103.737 88.7141 93.4718 93.6205 92.8651C94.7785 92.7196 95.8723 93.2663 96.7755 94.4401C99.1191 97.4868 99.8942 104.13 99.0245 108.035C98.9773 108.242 98.7929 108.368 98.6086 108.314C98.429 108.262 98.3202 108.053 98.3628 107.847C99.1758 104.202 98.4384 97.7719 96.2627 94.9446C95.5017 93.9549 94.6367 93.513 93.6942 93.6285C89.7876 94.1127 86.0156 102.443 84.626 110.218C84.5933 110.401 84.4515 110.526 84.2932 110.526Z" fill="#A3ACC0"/>
<path d="M82.4044 126C78.4442 126 74.5059 125.605 71.7007 124.698C69.5011 123.987 68.1049 123.004 67.5515 121.778C67.3383 121.306 67.4053 120.658 67.7497 119.851C68.9262 117.098 73.6382 112.112 79.0809 110.301C85.5152 108.159 89.3997 111.283 89.5612 111.417C89.7192 111.547 89.7432 111.783 89.6164 111.944C89.4897 112.106 89.2587 112.131 89.1007 112.001C89.0634 111.971 85.344 109.003 79.3089 111.015C74.2652 112.693 69.5696 117.468 68.4228 120.152C68.086 120.941 68.1499 121.312 68.2179 121.464C68.6819 122.49 69.9279 123.338 71.922 123.982C79.0912 126.3 92.8673 125.076 96.1968 123.099C96.9404 122.657 97.3636 122.047 97.4908 121.233C98.0034 117.961 93.5562 112.806 93.5117 112.754C93.43 112.66 93.3998 112.532 93.4299 112.411C93.4422 112.364 94.6166 107.643 95.2723 99.8174C95.2897 99.6115 95.4614 99.4542 95.6694 99.4756C95.8718 99.4934 96.0215 99.6752 96.0036 99.8816C95.4169 106.887 94.4147 111.436 94.1878 112.405C94.9549 113.318 98.7373 118.025 98.216 121.352C98.0535 122.388 97.4985 123.194 96.5653 123.747C94.2502 125.123 88.3035 126 82.4044 126Z" fill="#A3ACC0"/>
<path d="M75.5449 124.895H75.5354C75.3127 124.89 75.1357 124.719 75.1407 124.513C75.2616 119.703 76.0762 114.951 81.1747 112.771C81.3754 112.686 81.6166 112.765 81.711 112.953C81.8043 113.139 81.7161 113.361 81.5137 113.448C77.6678 115.093 76.1077 118.2 75.9491 124.53C75.9435 124.733 75.7642 124.895 75.5449 124.895Z" fill="#A3ACC0"/>
<path d="M96.4924 95.0526C96.2931 95.0526 96.1135 94.931 96.0716 94.7547C96.0231 94.5524 96.1727 94.3548 96.4056 94.3127C98.2962 93.9736 98.6674 88.7273 98.4518 85.5001C98.4399 85.2937 98.6195 85.1174 98.8589 85.1054C99.0864 85.1002 99.2959 85.251 99.3139 85.4575C99.3737 86.3773 99.8107 94.4645 96.5798 95.0448L96.4924 95.0526Z" fill="#A3ACC0"/>
<path d="M79.1561 79.5789C78.9465 79.5789 78.7741 79.4353 78.7687 79.2552C78.7153 77.4395 77.8354 76.0289 76.2905 75.283C74.2187 74.2816 71.2766 74.6133 68.0086 76.2165C67.8227 76.3079 67.5867 76.2525 67.4805 76.0931C67.3749 75.9342 67.439 75.7315 67.6244 75.64C71.1371 73.9167 74.3502 73.5833 76.6704 74.7047C78.4367 75.5573 79.4837 77.21 79.5435 79.2385C79.5484 79.4219 79.3797 79.5739 79.1652 79.5789H79.1561Z" fill="#A3ACC0"/>
<path d="M92.9418 52.0399C94.8098 48.6099 97.4003 53.1391 97.1454 58.1516C95.3306 59.2947 93.9607 60.7895 93.9607 60.7895C93.9607 60.7895 92.1955 57.3452 92.9418 52.0399Z" fill="white"/>
<path d="M69.666 49.67C70.3777 48.2784 71.7704 48.4135 71.8169 49.3218C72.0179 53.2481 70.5028 58.5266 69.6739 58.5786C68.8563 58.629 67.5779 53.3437 69.666 49.67Z" fill="white"/>
<path d="M69.6765 58.6552C69.7207 58.7817 69.7567 58.865 69.7845 58.9194C69.8292 58.8438 69.8979 58.7081 69.9941 58.4631C70.4451 57.3123 70.7959 55.376 70.9805 53.0113C71.1516 50.8213 71.6059 45.0047 70.6629 44.9026C70.5777 44.8993 70.3944 44.9926 70.1476 45.304C69.0008 46.7504 67.6476 51.0716 68.1134 54.5857C68.8714 56.134 69.392 57.2651 69.6765 58.6552ZM69.7767 59.6842H69.7653C69.4346 59.6746 69.2549 59.2775 69.1227 58.8905L69.1092 58.8414C68.8411 57.514 68.3283 56.4094 67.5768 54.8759L67.5412 54.7589C67.0149 50.9734 68.4539 46.426 69.717 44.8324C70.069 44.3886 70.4079 44.1811 70.7165 44.2139C72.1302 44.3664 71.9378 48.3171 71.5661 53.0748C71.373 55.5512 71.0136 57.5149 70.5278 58.7529C70.351 59.2043 70.1324 59.6842 69.7767 59.6842Z" fill="#A3ACC0"/>
<path d="M71.1749 36.4737C71.0628 36.4737 70.9494 36.4338 70.8636 36.354C70.6913 36.194 70.6913 35.9347 70.8636 35.7746C72.147 34.5816 73.878 34.2632 74.6987 34.2632C74.942 34.2632 75.1394 34.446 75.1394 34.6722C75.1394 34.8984 74.942 35.0819 74.6987 35.0819C74.0606 35.0819 72.5694 35.3473 71.4863 36.354C71.4005 36.4338 71.2877 36.4737 71.1749 36.4737Z" fill="#A3ACC0"/>
<path d="M95.6207 36.4737C95.5085 36.4737 95.3951 36.4338 95.3093 36.354C94.2267 35.3473 92.7345 35.0819 92.0964 35.0819C91.8536 35.0819 91.6562 34.8984 91.6562 34.6722C91.6562 34.446 91.8536 34.2632 92.0964 34.2632C92.9172 34.2632 94.6484 34.5816 95.9321 35.7746C96.1044 35.9347 96.1044 36.194 95.9321 36.354C95.8463 36.4338 95.7335 36.4737 95.6207 36.4737Z" fill="#A3ACC0"/>
<path d="M101.902 57.4737C101.767 57.4737 101.637 57.3995 101.591 57.2812C101.526 57.1312 101.619 56.9668 101.791 56.9134C104.671 56.0343 107.769 56.4779 107.899 56.4979C108.08 56.5248 108.205 56.6736 108.173 56.8304C108.14 56.9876 107.964 57.0919 107.788 57.0662C107.76 57.0618 104.727 56.6287 102.013 57.4573L101.902 57.4737Z" fill="#A3ACC0"/>
</svg>
