<svg width="24" height="24" viewBox="0 0 24 24" fill="none" xmlns="http://www.w3.org/2000/svg">
<path d="M14.6133 5.95276V10.0605L16.0503 10.9643C16.1022 10.9754 16.1559 10.9754 16.2078 10.9643L22.3863 6.79876C22.3818 6.5966 22.3078 6.40215 22.1768 6.24809C22.0459 6.09402 21.8658 5.98974 21.667 5.95276H14.6133Z" fill="#004AAD"/>
<path d="M14.6127 11.5927L15.9229 12.4927C15.9842 12.5303 16.0547 12.5501 16.1265 12.5501C16.1984 12.5501 16.2689 12.5303 16.3302 12.4927C16.1052 12.6285 22.3849 8.45923 22.3849 8.45923V16.0087C22.4013 16.1617 22.3841 16.3164 22.3344 16.462C22.2847 16.6076 22.2038 16.7407 22.0974 16.8517C21.9909 16.9628 21.8615 17.0493 21.7182 17.1051C21.5748 17.161 21.421 17.1848 21.2674 17.175H14.6119L14.6127 11.5927ZM7.82967 9.69898C7.61198 9.69801 7.39809 9.75591 7.21061 9.86655C7.02313 9.97719 6.86905 10.1364 6.76467 10.3275C6.47972 10.834 6.34301 11.4104 6.37017 11.991C6.34056 12.5703 6.47746 13.146 6.76467 13.65C6.86855 13.8332 7.01883 13.9858 7.20039 14.0926C7.38196 14.1993 7.58842 14.2564 7.79903 14.2581C8.00965 14.2598 8.21699 14.206 8.40023 14.1021C8.58347 13.9983 8.73615 13.848 8.84292 13.6665C9.12756 13.165 9.26166 12.5922 9.22917 12.0165C9.26167 11.4228 9.13204 10.8314 8.85417 10.3057C8.7546 10.1211 8.60663 9.96706 8.42613 9.86016C8.24564 9.75327 8.03944 9.69754 7.82967 9.69898Z" fill="#004AAD"/>
<path d="M1.61523 3.86625V19.9365L13.8402 22.5V1.5L1.61523 3.86625ZM9.79623 14.6182C9.56759 14.9407 9.26352 15.2023 8.91055 15.3802C8.55758 15.5581 8.16643 15.647 7.77123 15.639C7.38599 15.6458 7.0048 15.5595 6.66007 15.3874C6.31534 15.2153 6.01728 14.9625 5.79123 14.6505C5.25518 13.902 4.987 12.9947 5.02998 12.075C4.98449 11.1102 5.25751 10.1573 5.80698 9.363C6.0387 9.03459 6.34758 8.76817 6.70644 8.58716C7.06531 8.40616 7.46316 8.31613 7.86498 8.325C8.24739 8.31759 8.62578 8.40402 8.96704 8.57675C9.3083 8.74947 9.60202 9.0032 9.82248 9.31575C10.3532 10.0805 10.6168 10.999 10.5725 11.9288C10.6194 12.8866 10.3463 13.8328 9.79623 14.6182Z" fill="#004AAD"/>
</svg>
