<svg width="22" height="22" viewBox="0 0 22 22" fill="none" xmlns="http://www.w3.org/2000/svg">
<path d="M19.1977 15.4319C18.6953 12.4331 17.2595 9.6692 15.0947 7.53392C14.6208 7.07284 14.3843 6.84275 13.8609 6.63009C13.3375 6.4165 12.8874 6.4165 11.9881 6.4165H10.0118C9.11256 6.4165 8.66248 6.4165 8.13906 6.63009C7.61656 6.84275 7.37823 7.07284 6.90523 7.53392C4.74048 9.6692 3.30466 12.4331 2.80223 15.4319C2.35582 18.1251 4.83998 20.1665 7.61565 20.1665H14.3843C17.1609 20.1665 19.646 18.1251 19.1968 15.4319" stroke="#030303" stroke-linecap="round" stroke-linejoin="round"/>
<path d="M12.4914 11.8423C12.2934 11.1099 11.2842 10.4499 10.0733 10.944C8.86234 11.4381 8.67075 13.0267 10.5013 13.1963C11.33 13.2723 11.869 13.1073 12.3631 13.5739C12.8581 14.0396 12.9498 15.3367 11.6857 15.6859C10.4234 16.0352 9.17217 15.4898 9.0365 14.7143M10.8552 10.0759V10.7735M10.8552 15.7932V16.4935M6.65225 4.07267C6.4625 3.79767 6.18842 3.42367 6.75492 3.33934C7.337 3.25134 7.94109 3.64917 8.53325 3.64184C9.06767 3.63359 9.33992 3.39617 9.63325 3.057C9.94125 2.70042 10.4179 1.83325 11 1.83325C11.5821 1.83325 12.0588 2.70042 12.3668 3.057C12.6601 3.39617 12.9323 3.6345 13.4668 3.64092C14.0589 3.65009 14.663 3.25134 15.2451 3.33842C15.8116 3.42367 15.5375 3.79675 15.3478 4.07175L14.4934 5.3175C14.1268 5.84917 13.9443 6.115 13.5612 6.26625C13.178 6.4175 12.6839 6.41659 11.6948 6.41659H10.3052C9.31517 6.41659 8.82109 6.41659 8.43884 6.26625C8.05659 6.11592 7.87325 5.84825 7.50659 5.31659L6.65225 4.07267Z" stroke="#030303" stroke-linecap="round" stroke-linejoin="round"/>
</svg>
