<svg width="22" height="22" viewBox="0 0 22 22" fill="none" xmlns="http://www.w3.org/2000/svg">
<path d="M10.0835 3.20838C11.096 3.20838 11.9168 4.02919 11.9168 5.04172V10.0834C11.9168 11.349 10.8908 12.375 9.62516 12.375H8.25016M10.0835 3.20838V2.61257M10.0835 3.20838V3.80424M6.41678 3.20838C5.40429 3.20838 4.5835 4.02917 4.5835 5.04167V10.0834C4.5835 11.349 5.60951 12.375 6.87516 12.375H8.25016M6.41678 3.20838V2.61255M6.41678 3.20838V3.80422M16.0418 8.70838C16.8012 8.70838 17.4168 8.09277 17.4168 7.33338C17.4168 6.57399 16.8012 5.95838 16.0418 5.95838C15.2824 5.95838 14.6668 6.57399 14.6668 7.33338C14.6668 8.09277 15.2824 8.70838 16.0418 8.70838ZM16.0418 8.70838V15.3542C16.0418 17.5058 14.2976 19.25 12.146 19.25C9.99439 19.25 8.25016 17.5058 8.25016 15.3542V12.375" stroke="#030303" stroke-linecap="round"/>
</svg>
